<?xml version="1.0" standalone="no"?>
<!DOCTYPE svg PUBLIC "-//W3C//DTD SVG 20010904//EN"
 "http://www.w3.org/TR/2001/REC-SVG-20010904/DTD/svg10.dtd">
<svg version="1.0" xmlns="http://www.w3.org/2000/svg"
 width="512.000000pt" height="512.000000pt" viewBox="0 0 512.000000 512.000000"
 preserveAspectRatio="xMidYMid meet">

<g transform="translate(0.000000,512.000000) scale(0.100000,-0.100000)"
fill="#000000" stroke="none">
<path d="M2433 5105 c-91 -20 -197 -80 -272 -153 l-65 -63 -55 24 c-102 45
-133 52 -241 51 -164 0 -250 -35 -250 -100 0 -37 12 -56 43 -69 26 -11 39 -10
81 2 68 21 178 21 247 0 31 -9 84 -35 117 -58 84 -55 115 -52 159 15 75 115
177 185 300 207 158 28 332 -53 419 -193 49 -80 81 -87 160 -34 137 92 284
105 428 38 118 -55 200 -166 230 -309 17 -80 43 -108 91 -99 16 4 63 9 104 13
l73 6 -62 -74 c-122 -144 -175 -305 -151 -458 44 -282 283 -491 563 -491 127
0 228 36 343 123 33 25 63 43 67 41 4 -2 17 -30 29 -62 17 -43 22 -78 22 -142
-1 -98 -23 -168 -78 -246 -53 -74 -46 -114 28 -157 23 -14 64 -48 91 -76 166
-179 144 -465 -47 -611 -29 -22 -64 -49 -79 -60 -40 -31 -37 -69 12 -143 56
-83 73 -149 68 -256 -3 -70 -10 -99 -35 -154 -59 -124 -166 -205 -306 -232
-94 -18 -113 -39 -101 -110 5 -27 8 -90 8 -140 0 -80 -3 -97 -31 -158 -60
-127 -175 -214 -315 -238 -56 -9 -81 -8 -148 5 -114 23 -130 12 -154 -102 -19
-93 -56 -160 -123 -223 -96 -91 -228 -133 -349 -110 -69 12 -146 46 -200 87
-59 45 -101 29 -152 -57 -77 -129 -258 -208 -411 -180 -119 22 -213 82 -277
178 -21 32 -45 64 -53 71 -26 22 -69 13 -133 -28 -86 -56 -151 -73 -257 -68
-70 3 -99 10 -152 35 -122 57 -204 164 -234 307 -8 40 -22 78 -34 89 -19 19
-24 20 -105 7 -162 -25 -288 11 -386 110 -109 109 -142 244 -105 431 11 55
-21 85 -113 103 -93 19 -159 56 -223 123 -139 147 -153 361 -34 529 51 72 48
105 -12 147 -129 88 -194 182 -214 309 -25 159 55 328 193 414 24 14 49 33 55
42 21 26 15 73 -13 109 -14 18 -37 59 -52 91 -24 51 -27 69 -27 167 0 93 4
118 22 158 l23 49 27 -22 c134 -104 223 -141 349 -148 114 -5 184 9 282 59
100 50 159 102 221 195 148 221 127 474 -56 690 l-64 74 50 0 c27 0 72 -5 100
-12 47 -10 54 -10 79 9 21 15 30 34 40 84 7 35 28 96 47 136 41 84 42 92 14
127 -26 33 -79 36 -109 6 -24 -24 -75 -124 -84 -165 l-7 -30 -87 0 c-48 0
-114 -6 -147 -13 l-61 -14 -60 36 c-158 94 -354 146 -552 146 -129 0 -267 -21
-290 -44 -22 -22 -42 -121 -48 -241 -13 -241 61 -494 201 -691 l45 -62 -35
-74 c-48 -100 -69 -203 -60 -298 6 -75 35 -177 61 -217 8 -12 14 -26 14 -30 0
-5 -30 -40 -68 -78 -218 -227 -215 -569 6 -794 l63 -65 -31 -67 c-95 -207 -47
-466 119 -629 67 -66 151 -118 227 -140 l41 -12 -4 -67 c-12 -173 69 -352 212
-468 102 -83 186 -113 333 -122 l114 -6 19 -54 c64 -183 228 -324 424 -366 39
-8 88 -15 110 -15 60 0 168 26 235 56 l60 27 73 -70 c124 -118 269 -171 431
-160 142 10 266 67 368 169 l59 59 54 -25 c216 -103 475 -58 644 112 66 67
119 152 141 228 l12 41 67 -4 c128 -9 281 41 381 124 138 114 210 267 210 446
l0 84 58 22 c134 48 259 161 319 286 78 164 80 322 6 487 l-26 58 69 73 c82
86 118 149 144 253 51 197 -4 398 -148 543 l-63 64 25 57 c77 171 72 348 -15
510 l-31 59 46 64 c141 198 215 450 202 692 -6 120 -26 219 -48 241 -23 23
-161 44 -290 44 -200 0 -397 -53 -557 -149 l-64 -38 -46 14 c-25 8 -88 15
-140 16 l-93 2 -24 63 c-116 309 -467 454 -772 317 l-57 -25 -70 67 c-142 137
-329 190 -522 148z m-1943 -576 c100 -15 251 -71 343 -125 117 -70 263 -216
308 -309 58 -118 52 -267 -14 -375 l-21 -35 -12 70 c-48 279 -240 507 -481
570 -31 8 -74 15 -96 15 -74 0 -115 -81 -64 -127 13 -13 48 -25 91 -32 38 -7
92 -24 120 -38 67 -34 173 -142 213 -218 84 -160 88 -338 9 -390 -63 -42 -214
-26 -316 32 -60 35 -181 153 -236 229 -54 76 -127 228 -148 309 -24 94 -38
234 -31 305 10 113 13 118 48 123 67 8 225 6 287 -4z m4456 -2 c3 -3 10 -43
16 -88 11 -90 -1 -227 -28 -334 -21 -81 -94 -233 -148 -309 -55 -76 -177 -194
-236 -228 -92 -53 -212 -72 -290 -45 -142 49 -98 347 79 527 77 79 142 114
237 131 43 7 78 19 92 32 50 46 9 127 -65 127 -22 0 -65 -7 -96 -15 -241 -63
-433 -291 -481 -570 l-12 -70 -21 35 c-40 65 -55 133 -52 222 3 70 9 95 38
153 45 93 191 239 308 309 87 51 240 109 333 125 57 10 315 9 326 -2z"/>
<path d="M1354 3520 c-31 -12 -61 -55 -109 -155 -152 -319 -181 -688 -80
-1040 35 -124 139 -329 230 -455 96 -132 163 -270 210 -430 122 -418 397 -719
745 -816 101 -28 329 -26 433 4 266 76 494 277 635 557 47 92 68 149 112 295
18 58 52 146 76 196 24 51 44 99 44 108 0 9 -11 28 -25 41 -30 30 -77 33 -104
6 -33 -33 -97 -178 -145 -331 -72 -231 -145 -364 -268 -496 -67 -71 -153 -137
-233 -177 -59 -29 -177 -67 -211 -67 l-24 0 0 158 0 157 156 155 c86 85 160
165 165 178 19 49 -36 111 -88 97 -17 -4 -84 -63 -171 -148 l-142 -141 -143
142 c-160 159 -186 174 -231 129 -17 -17 -26 -37 -26 -58 0 -29 20 -52 160
-194 l160 -161 0 -157 c0 -181 6 -173 -105 -138 -88 28 -132 48 -210 98 -180
117 -321 320 -401 575 -75 241 -116 328 -243 506 -98 139 -152 243 -195 374
-51 158 -61 224 -61 413 1 207 20 311 94 498 l11 29 50 -76 c146 -217 415
-295 652 -189 l56 25 60 -60 c201 -201 522 -202 736 -2 l65 61 38 -19 c67 -35
144 -52 229 -52 190 0 358 97 458 263 l35 59 16 -37 c67 -161 96 -317 96 -510
0 -217 -43 -392 -142 -589 -57 -112 -60 -147 -17 -179 22 -17 33 -18 60 -11
27 8 41 23 75 83 231 408 240 938 22 1362 -49 96 -51 98 -101 115 -47 15 -53
15 -84 1 -23 -11 -35 -25 -39 -44 -19 -93 -40 -152 -71 -199 -41 -61 -82 -95
-162 -132 -49 -23 -70 -27 -147 -27 -98 1 -143 15 -229 74 -25 17 -55 31 -68
31 -28 0 -61 -28 -82 -69 -25 -48 -122 -128 -184 -152 -72 -28 -185 -31 -257
-6 -67 23 -139 78 -178 135 -68 98 -102 113 -161 68 -123 -93 -270 -108 -406
-39 -109 54 -175 144 -201 272 -7 38 -20 71 -32 82 -22 20 -67 24 -103 9z"/>
<path d="M1647 2820 c-63 -16 -112 -47 -161 -100 -105 -117 -101 -292 10 -405
64 -67 121 -90 219 -90 70 0 87 4 134 30 107 59 161 151 161 275 0 54 -6 78
-31 128 -16 34 -45 73 -62 88 -72 61 -190 93 -270 74z m178 -202 c67 -80 -19
-193 -110 -144 -58 32 -71 95 -30 145 41 48 99 48 140 -1z"/>
<path d="M3359 2819 c-66 -10 -120 -41 -172 -99 -116 -128 -99 -325 36 -432
193 -152 469 -28 485 217 12 196 -153 345 -349 314z m166 -201 c56 -66 19
-153 -65 -153 -106 0 -130 156 -27 183 43 11 63 5 92 -30z"/>
</g>
</svg>
